<?xml version="1.0" encoding="iso-8859-1"?>
<!-- Uploaded to: SVG Repo, www.svgrepo.com, Generator: SVG Repo Mixer Tools -->
<svg fill="#000000" height="800px" width="800px" version="1.1" id="Layer_1" xmlns="http://www.w3.org/2000/svg" xmlns:xlink="http://www.w3.org/1999/xlink" 
	 viewBox="0 0 512.001 512.001" xml:space="preserve">
<g>
	<g>
		<path d="M461.835,0H291.57c-0.015,0-0.032,0.001-0.048,0.001c-8.003,0.019-15.083,5.43-17.192,13.164L211.8,242.644l-7.137,7.138
			l-1.55-1.55c-6.977-6.976-18.284-6.974-25.26,0c-6.976,6.976-6.976,18.284,0,25.26l1.552,1.552l-10.497,10.497l-2.117-2.117
			c-6.974-6.976-18.284-6.976-25.26,0c-6.976,6.976-6.976,18.284,0,25.26l2.117,2.117l-92.769,92.769
			c-24.773,24.773-24.773,65.08,0,89.854c24.773,24.772,65.08,24.773,89.853,0l48.876-48.876c23.151-23.152,60.624-23.156,83.78,0
			c6.974,6.975,18.284,6.975,25.26,0c6.976-6.976,6.976-18.284,0-25.26c-37.111-37.114-97.183-37.117-134.301,0l-48.876,48.875
			c-10.844,10.844-28.489,10.843-39.335,0c-10.844-10.844-10.844-28.489,0-39.333l92.769-92.769l0.988,0.988
			c6.974,6.976,18.284,6.977,25.26,0c6.976-6.976,6.976-18.284,0-25.26l-0.988-0.988l10.497-10.497l1.554,1.554
			c6.975,6.974,18.283,6.976,25.26,0c6.976-6.976,6.976-18.284,0-25.26l-1.555-1.555l7.139-7.139l229.477-62.531
			c7.739-2.103,13.145-9.196,13.164-17.184c0-0.018,0.002-0.036,0.002-0.054V17.867C479.707,8.039,471.677-0.004,461.835,0z
			 M418.719,35.723L376.702,77.74l-42.017-42.017H418.719z M300.702,52.26l50.74,50.74l-88.75,88.75L300.702,52.26z
			 M287.952,217.009l88.75-88.749l50.74,50.74L287.952,217.009z M443.979,145.019L401.962,103l42.017-42.017V145.019z"/>
	</g>
</g>
</svg>